<?xml version="1.0" encoding="UTF-8" standalone="no"?>
<svg
   xml:space="preserve"
   version="1.1"
   style="clip-rule:evenodd;fill-rule:evenodd;image-rendering:optimizeQuality;shape-rendering:geometricPrecision;text-rendering:geometricPrecision"
   viewBox="0 0 100 100"
   x="0px"
   y="0px"
   id="svg5504"
   sodipodi:docname="Noun_Project_Save_Icon_1527077.svg"
   width="100"
   height="100"
   inkscape:version="1.3.2 (091e20e, 2023-11-25, custom)"
   xmlns:inkscape="http://www.inkscape.org/namespaces/inkscape"
   xmlns:sodipodi="http://sodipodi.sourceforge.net/DTD/sodipodi-0.dtd"
   xmlns="http://www.w3.org/2000/svg"
   xmlns:svg="http://www.w3.org/2000/svg"
   xmlns:rdf="http://www.w3.org/1999/02/22-rdf-syntax-ns#"
   xmlns:cc="http://creativecommons.org/ns#"
   xmlns:dc="http://purl.org/dc/elements/1.1/"><metadata
     id="metadata5508"><rdf:RDF><cc:Work
         rdf:about=""><dc:format>image/svg+xml</dc:format><dc:type
           rdf:resource="http://purl.org/dc/dcmitype/StillImage" /><dc:title /></cc:Work></rdf:RDF></metadata><sodipodi:namedview
     pagecolor="#ffffff"
     bordercolor="#666666"
     borderopacity="1"
     objecttolerance="10"
     gridtolerance="10"
     guidetolerance="10"
     inkscape:pageopacity="0"
     inkscape:pageshadow="2"
     inkscape:window-width="1920"
     inkscape:window-height="1017"
     id="namedview5506"
     showgrid="false"
     inkscape:zoom="4"
     inkscape:cx="82.125"
     inkscape:cy="87.875"
     inkscape:window-x="-8"
     inkscape:window-y="-8"
     inkscape:window-maximized="1"
     inkscape:current-layer="svg5504"
     inkscape:showpageshadow="2"
     inkscape:pagecheckerboard="0"
     inkscape:deskcolor="#d1d1d1"
     showguides="true" /><defs
     id="defs5494"><inkscape:path-effect
       effect="spiro"
       id="path-effect17"
       is_visible="true"
       lpeversion="1" /><inkscape:path-effect
       effect="bspline"
       id="path-effect13"
       is_visible="true"
       lpeversion="1.3"
       weight="33.333333"
       steps="2"
       helper_size="0"
       apply_no_weight="true"
       apply_with_weight="true"
       only_selected="false"
       uniform="false" /><inkscape:path-effect
       effect="bspline"
       id="path-effect12"
       is_visible="true"
       lpeversion="1.3"
       weight="33.333333"
       steps="2"
       helper_size="0"
       apply_no_weight="true"
       apply_with_weight="true"
       only_selected="false"
       uniform="false" /><inkscape:path-effect
       effect="bspline"
       id="path-effect11"
       is_visible="true"
       lpeversion="1.3"
       weight="33.333333"
       steps="2"
       helper_size="0"
       apply_no_weight="true"
       apply_with_weight="true"
       only_selected="false"
       uniform="false" /><inkscape:path-effect
       effect="bspline"
       id="path-effect10"
       is_visible="true"
       lpeversion="1.3"
       weight="33.333333"
       steps="2"
       helper_size="0"
       apply_no_weight="true"
       apply_with_weight="true"
       only_selected="false"
       uniform="false" /><inkscape:path-effect
       effect="bspline"
       id="path-effect6"
       is_visible="true"
       lpeversion="1.3"
       weight="33.333333"
       steps="2"
       helper_size="0"
       apply_no_weight="true"
       apply_with_weight="true"
       only_selected="false"
       uniform="false" /><style
       type="text/css"
       id="style5492">
   
    .fil0 {fill:black}
   
  </style><inkscape:path-effect
       effect="spiro"
       id="path-effect17-3"
       is_visible="true"
       lpeversion="1" /></defs><g
     id="g5498"
     transform="matrix(0.29791633,0,0,0.29791633,1.1652054,1.0396761)"><path
       class="fil0"
       d="m 258,184 v -7 H 73 c -6,0 -11,4 -11,10 V 313 H 29 c -5,0 -9,-4 -9,-9 V 29 c 0,-5 4,-9 9,-9 h 53 v 96 c 0,6 5,11 10,11 h 149 c 6,0 11,-5 11,-11 V 24 l 61,61 v 219 c 0,5 -4,9 -9,9 -78,0 -156,0 -234,0 V 187 c 0,-1 1,-3 3,-3 z m 63,120 c 0,10 -7,17 -17,17 H 29 c -9,0 -17,-7 -17,-17 V 29 c 0,-9 8,-17 17,-17 h 222 c 24,24 47,47 70,70 z M 209,38 h 10 c 6,0 11,5 11,11 v 45 c 0,6 -5,11 -11,11 h -10 c -6,0 -11,-5 -11,-11 V 49 c 0,-6 5,-11 11,-11 z m 10,8 h -10 c -1,0 -3,1 -3,3 v 45 c 0,2 2,3 3,3 h 10 c 2,0 3,-1 3,-3 V 49 c 0,-2 -1,-3 -3,-3 z M 90,20 v 96 c 0,2 1,3 2,3 h 149 c 1,0 3,-1 3,-3 V 20 Z"
       id="path5496"
       inkscape:connector-curvature="0"
       style="fill:#000000" /></g><g
     id="g7"
     transform="matrix(0.29791633,0,0,0.29791633,1.1652054,1.0396761)"
     inkscape:label="copy"
     style="stroke:none;stroke-opacity:1"><path
       class="fil0"
       d="m 258,184 v -7 H 73 c -6,0 -11,4 -11,10 V 313 H 29 c -5,0 -9,-4 -9,-9 V 29 c 0,-5 4,-9 9,-9 h 53 v 96 c 0,6 5,11 10,11 h 149 c 6,0 11,-5 11,-11 V 24 l 61,61 v 219 c 0,5 -4,9 -9,9 -78,0 -156,0 -234,0 V 187 c 0,-1 1,-3 3,-3 z m 63,120 c 0,10 -7,17 -17,17 H 29 c -9,0 -17,-7 -17,-17 V 29 c 0,-9 8,-17 17,-17 h 222 c 24,24 47,47 70,70 z M 209,38 h 10 c 6,0 11,5 11,11 v 45 c 0,6 -5,11 -11,11 h -10 c -6,0 -11,-5 -11,-11 V 49 c 0,-6 5,-11 11,-11 z m 10,8 h -10 c -1,0 -3,1 -3,3 v 45 c 0,2 2,3 3,3 h 10 c 2,0 3,-1 3,-3 V 49 c 0,-2 -1,-3 -3,-3 z M 90,20 v 96 c 0,2 1,3 2,3 h 149 c 1,0 3,-1 3,-3 V 20 Z"
       id="path7"
       inkscape:connector-curvature="0"
       style="fill:#000000;stroke:none;stroke-opacity:1" /></g><g
     inkscape:groupmode="layer"
     id="layer1"
     inkscape:label="Layer 1" /><path
     style="fill:#000000;fill-opacity:1;fill-rule:evenodd;stroke:none;stroke-linejoin:round;stroke-opacity:1"
     d="M 19.604025,94.278601 V 56.863365 h 2.416401 v 37.45421 z"
     id="path8" /><path
     style="fill:#000000;fill-opacity:1;fill-rule:evenodd;stroke:none;stroke-linejoin:round;stroke-opacity:1"
     d="m 22.020426,94.259114 -2.435888,0.01949 0.01949,-37.395749 0.03897,-0.467691 0.09744,-0.448203 0.07795,-0.311794 0.233845,-0.448203 0.194871,-0.233845 0.253333,-0.27282 0.155897,-0.194871 0.370254,-0.214358 0.428717,-0.253332 0.311793,-0.116923 0.467691,-0.09743 0.233845,-0.03897 h 0.214358 l 0.27282,-0.01949 0.01949,2.104607 h -0.214358 l -0.175384,0.03897 -0.194871,0.155897 -0.116923,0.116922 -0.13641,0.175384 -0.07795,0.155897 -0.03897,0.13641 z"
     id="path9" /><path
     style="clip-rule:evenodd;fill:#000000;fill-opacity:1;fill-rule:evenodd;stroke:none;stroke-linejoin:round;stroke-opacity:1;image-rendering:optimizeQuality;shape-rendering:geometricPrecision;text-rendering:geometricPrecision"
     d="m 78.957994,94.258726 2.435888,0.01949 -0.01949,-37.395749 -0.03897,-0.467691 -0.09744,-0.448203 -0.07795,-0.311794 -0.233845,-0.448203 -0.194871,-0.233845 -0.253333,-0.27282 -0.155897,-0.194871 -0.370254,-0.214358 -0.428717,-0.253332 -0.311793,-0.116923 -0.467691,-0.09743 -0.233845,-0.03897 h -0.214358 l -0.27282,-0.01949 -0.01949,2.104607 h 0.214358 l 0.175384,0.03897 0.194871,0.155897 0.116923,0.116922 0.13641,0.175384 0.07795,0.155897 0.03897,0.13641 z"
     id="path9-2" /><path
     style="fill:#000000;fill-opacity:1;fill-rule:evenodd;stroke:none;stroke-linejoin:round;stroke-opacity:1"
     d="m 79.080334,94.189514 c 0.0046,0.0689 0.0092,0.137796 0.01378,0.206692"
     id="path10"
     inkscape:path-effect="#path-effect10"
     inkscape:original-d="m 79.080334,94.189514 c 0.0046,0.0689 0.0092,0.137795 0.01378,0.206692" /><path
     style="fill:#000000;fill-opacity:1;fill-rule:evenodd;stroke:none;stroke-linejoin:round;stroke-opacity:1"
     d="m 78.336243,93.803689 c 0,0 -0.03445,0.199802 -0.03445,0.199802"
     id="path11"
     inkscape:path-effect="#path-effect11"
     inkscape:original-d="m 78.336243,93.803689 -0.03445,0.199802" /><path
     style="fill:#000000;fill-opacity:1;fill-rule:evenodd;stroke:#000000;stroke-linejoin:round;stroke-opacity:1"
     d="m 80.554736,93.838138 c -0.03675,0.248031 -0.07349,0.496061 -0.110235,0.744091"
     id="path12"
     inkscape:path-effect="#path-effect12"
     inkscape:original-d="m 80.554736,93.838138 c -0.03675,0.24803 -0.07349,0.496061 -0.110235,0.744091"
     transform="matrix(2.191702,0,0,5.4740853,-96.293281,-422.27606)" /><path
     style="fill:#000000;fill-opacity:1;fill-rule:evenodd;stroke:#000000;stroke-linejoin:round;stroke-opacity:1"
     d="m 80.857884,93.838137 c -0.0086,0.234418 0.08544,0.594806 -0.04134,0.806099"
     id="path14" /><path
     style="fill:#000000;fill-opacity:1;fill-rule:evenodd;stroke:#000000;stroke-linejoin:round;stroke-opacity:1"
     d="m 73.875,89.125 v 0.6875"
     id="path17"
     inkscape:path-effect="#path-effect17"
     inkscape:original-d="m 73.875,89.125 c 0,0.229166 0,0.458333 0,0.6875"
     transform="translate(5.5820313,4.8437499)" /><path
     style="clip-rule:evenodd;fill:#000000;fill-opacity:1;fill-rule:evenodd;stroke:#000000;stroke-linejoin:round;stroke-opacity:1;image-rendering:optimizeQuality;shape-rendering:geometricPrecision;text-rendering:geometricPrecision"
     d="m 73.875,89.125 v 0.6875"
     id="path17-8"
     inkscape:path-effect="#path-effect17-3"
     inkscape:original-d="m 73.875,89.125 c 0,0.229166 0,0.458333 0,0.6875"
     transform="translate(7.0156252,4.8984373)" /></svg>
